<svg xmlns="http://www.w3.org/2000/svg" xmlns:xlink="http://www.w3.org/1999/xlink" version="1.1" x="0px" y="0px" viewBox="0 0 100 125" style="enable-background:new 0 0 100 100;" xml:space="preserve"><style type="text/css">
	.st0{fill:none;stroke:#000000;stroke-width:2;stroke-miterlimit:10;}
</style><path class="st0" d="M177.4,54.8"/><g><polygon points="50.2,27.1 30.5,46.8 33,49.3 48.4,34 48.4,70.5 51.9,70.5 51.9,33.9 67.3,49.3 69.9,46.8  "/><g><path d="M50.2,87.6c-20.7,0-37.6-16.8-37.6-37.6s16.8-37.6,37.6-37.6s37.5,16.8,37.5,37.6S70.9,87.6,50.2,87.6z M50.2,16.1    c-18.7,0-34,15.3-34,34s15.3,34,34,34s34-15.3,34-34S68.9,16.1,50.2,16.1z"/></g></g><text x="0" y="115" fill="#000000" font-size="5px" font-weight="bold" font-family="'Helvetica Neue', Helvetica, Arial-Unicode, Arial, Sans-serif">Created by NoNsEnSe ThInGs</text><text x="0" y="120" fill="#000000" font-size="5px" font-weight="bold" font-family="'Helvetica Neue', Helvetica, Arial-Unicode, Arial, Sans-serif">from the Noun Project</text></svg>